# xmcd CD database file
#
# Track frame offsets:
#	150
#	14957
#	27795
#	42340
#	54880
#	69030
#	80715
#	94130
#	108495
#	122985
#	137772
#	152455
#
# Disc length: 2215 seconds
#
# Revision: 0
# Processed by: cddbd v1.4PL0 Copyright (c) Steve Scherf et al.
# Submitted via: CDex 1.50
#
DISCID=9a08a50c
DTITLE=Joe Mooney - ON THE ROCKS
DYEAR=1900
DGENRE=Jazz
TTITLE0=SEPTEMBER SONG
TTITLE1=FROM MONDAY ON
TTITLE2=NANCY
TTITLE3=TEA FOR TWO
TTITLE4=WARM KISS AND COLD HEART
TTITLE5=A MAN WITH ONE MILLION DOLLARS
TTITLE6=YOU GO TO HEAD
TTITLE7=JUST A GIGOLO
TTITLE8=WHAT MORE CAN A WOMAN DO?
TTITLE9=PRELUDE TO A KISS
TTITLE10=LAZY COUNTRYSIDE
TTITLE11=HAVE ANOTHER ONE,NOT ME
EXTD=
EXTT0=
EXTT1=
EXTT2=
EXTT3=
EXTT4=
EXTT5=
EXTT6=
EXTT7=
EXTT8=
EXTT9=
EXTT10=
EXTT11=
PLAYORDER=
